<svg width="161" height="30" viewBox="0 0 161 30" fill="none" xmlns="http://www.w3.org/2000/svg">
<path d="M160.265 1.00528H153.968V28.9418H160.265V1.00528Z" fill="white"/>
<path d="M135.079 20.7407V20.7936V20.7407L127.355 1.00528H120.635V28.9947H126.931V21.3757L126.667 16.5608L131.852 29.0476H134.762H135.079H138.36L143.545 16.5608L143.281 21.3757V28.9947H149.524V1.00528H142.857L135.079 20.7407Z" fill="white"/>
<path d="M104.974 0C102.222 0 98.3598 0.793651 95.6085 4.49735C94.3916 6.08466 93.8096 7.98942 93.8096 10.2116V19.8413C93.8096 22.963 95.2381 25.873 97.5662 27.619C99.7884 29.2064 102.381 30 105.026 30C107.619 30 110.265 29.1534 112.487 27.619C114.815 25.873 116.243 22.963 116.243 19.8413V10.2116C116.243 2.69841 109.471 0 104.974 0ZM109.841 18.836C109.841 21.7989 107.884 23.9153 105.026 23.9153C102.169 23.9153 100.212 21.8519 100.212 18.836V11.164C100.212 8.20106 102.169 6.08466 104.974 6.08466C107.778 6.08466 109.841 8.20106 109.841 11.164V18.836Z" fill="white"/>
<path d="M71.1639 17.7778C73.7036 16.2434 75.2909 12.963 75.2909 9.99999C75.2909 5.29099 71.4285 1.00528 66.7195 1.00528H52.7512V29.0476H59.0475V19.0476H64.5502L64.6031 19.1005L68.8359 29.0476H75.7671L70.8994 17.9365L71.1639 17.7778ZM66.7195 12.7513H59.0475V7.30158H66.7195C67.9364 7.30158 68.9417 8.78306 68.9417 9.99999C68.9417 11.2698 67.9364 12.7513 66.7195 12.7513Z" fill="white"/>
<path d="M37.09 0C34.3387 0 30.4763 0.793651 27.725 4.49735C26.508 6.08466 25.926 7.98942 25.926 10.2116V19.8413C25.926 22.963 27.3546 25.873 29.6826 27.619C31.9049 29.2064 34.4975 30 37.143 30C39.7355 30 42.3811 29.1534 44.6033 27.619C46.9313 25.873 48.3599 22.963 48.3599 19.8413V10.2116C48.307 2.69841 41.5874 0 37.09 0ZM41.9578 18.836C41.9578 21.7989 40.0001 23.9153 37.143 23.9153C34.2858 23.9153 32.3281 21.8519 32.3281 18.836V11.164C32.3281 8.20106 34.2858 6.08466 37.09 6.08466C39.8943 6.08466 41.9578 8.20106 41.9578 11.164V18.836Z" fill="white"/>
<path d="M19.6296 14.8678C19.6296 14.8678 22.2751 12.9101 22.2751 9.52384C22.2751 4.70902 18.3598 0.846588 13.5979 0.846588H0V29.1535H13.9153C18.7302 29.1535 22.5926 25.291 22.5926 20.5291C22.5926 16.9842 19.6296 14.8678 19.6296 14.8678ZM6.34921 7.2487H13.5979C14.8148 7.2487 15.873 8.30691 15.873 9.52384C15.873 10.7937 14.8677 11.8519 13.5979 11.8519H6.34921V7.2487ZM13.9153 22.8043H6.34921V18.2011H13.8095C15.1323 18.2011 16.1905 19.2593 16.1905 20.5291C16.1905 21.7461 15.1323 22.8043 13.9153 22.8043Z" fill="white"/>
<path d="M83.0688 20.6349C83.0688 22.8571 82.4868 23.7566 80.2646 23.7566C79.418 23.7566 78.7302 23.7037 78.1482 23.6508V29.418C79.1006 29.5767 80.1059 29.6825 80.8995 29.6825C86.5609 29.6825 89.3651 27.0899 89.3651 21.4286V1.00528H83.0688V20.6349Z" fill="white"/>
</svg>
